HIERARCHY
ROOT Hips
{
 OFFSET 0.000000 0.000000 0.000000
 CHANNELS 6 Xposition Yposition Zposition Yrotation Xrotation Zrotation
 JOINT Chest
 {
  OFFSET 0.000000 14.374500 -0.011500
  CHANNELS 3 Yrotation Xrotation Zrotation
  JOINT Chest2
  {
   OFFSET 0.000000 9.203400 0.023400
   CHANNELS 3 Yrotation Xrotation Zrotation
   JOINT Chest3
   {
    OFFSET 0.000000 9.162700 0.000000
    CHANNELS 3 Yrotation Xrotation Zrotation
    JOINT Chest4
    {
     OFFSET 0.000000 9.153300 0.000000
     CHANNELS 3 Yrotation Xrotation Zrotation
     JOINT Neck
     {
      OFFSET 0.000000 13.353600 0.000000
      CHANNELS 3 Yrotation Xrotation Zrotation
      JOINT Head
      {
       OFFSET 0.000000 8.573800 0.049400
       CHANNELS 3 Yrotation Xrotation Zrotation
       End Site
       {
        OFFSET 0.000000 16.219200 0.026100
       }
      }
     }
     JOINT RightCollar
     {
      OFFSET -2.497100 8.876100 0.000000
      CHANNELS 3 Yrotation Xrotation Zrotation
      JOINT RightShoulder
      {
       OFFSET -12.289200 0.000000 0.000000
       CHANNELS 3 Yrotation Xrotation Zrotation
       JOINT RightElbow
       {
        OFFSET 0.000000 -28.194900 0.000000
        CHANNELS 3 Yrotation Xrotation Zrotation
        JOINT RightWrist
        {
         OFFSET 0.000000 -23.009700 0.007900
         CHANNELS 3 Yrotation Xrotation Zrotation
         End Site
         {
          OFFSET 0.000000 -17.151500 0.000000
         }
        }
       }
      }
     }
     JOINT LeftCollar
     {
      OFFSET 2.497100 8.876100 0.000000
      CHANNELS 3 Yrotation Xrotation Zrotation
      JOINT LeftShoulder
      {
       OFFSET 12.289200 0.000000 0.000000
       CHANNELS 3 Yrotation Xrotation Zrotation
       JOINT LeftElbow
       {
        OFFSET 0.000000 -28.194900 0.000000
        CHANNELS 3 Yrotation Xrotation Zrotation
        JOINT LeftWrist
        {
         OFFSET 0.000000 -23.009700 0.007900
         CHANNELS 3 Yrotation Xrotation Zrotation
         End Site
         {
          OFFSET 0.000000 -17.151500 0.000000
         }
        }
       }
      }
     }
    }
   }
  }
 }
 JOINT RightHip
 {
  OFFSET -11.777600 0.056700 0.005700
  CHANNELS 3 Yrotation Xrotation Zrotation
  JOINT RightKnee
  {
   OFFSET 0.000000 -39.966000 -0.004200
   CHANNELS 3 Yrotation Xrotation Zrotation
   JOINT RightAnkle
   {
    OFFSET 0.000000 -41.981900 0.027400
    CHANNELS 3 Yrotation Xrotation Zrotation
    JOINT RightToe
    {
     OFFSET 0.000000 -9.910600 16.950100
     CHANNELS 3 Yrotation Xrotation Zrotation
     End Site
     {
      OFFSET 0.000000 -1.461000 6.191600
     }
    }
   }
  }
 }
 JOINT LeftHip
 {
  OFFSET 11.777600 0.056700 0.005700
  CHANNELS 3 Yrotation Xrotation Zrotation
  JOINT LeftKnee
  {
   OFFSET 0.000000 -39.966000 -0.004200
   CHANNELS 3 Yrotation Xrotation Zrotation
   JOINT LeftAnkle
   {
    OFFSET 0.000000 -41.981900 0.027400
    CHANNELS 3 Yrotation Xrotation Zrotation
    JOINT LeftToe
    {
     OFFSET 0.000000 -9.910600 16.950100
     CHANNELS 3 Yrotation Xrotation Zrotation
     End Site
     {
      OFFSET 0.000000 -1.461000 6.191600
     }
    }
   }
  }
 }
}
MOTION
Frames: 15
Frame Time: 0.008333
0.000000 91.618700 0.000000 0.000000 -5.767877 0.000000 0.000000 11.653817 0.000000 0.000000 -5.885947 0.000000 0.000000 -0.000000 0.000000 0.000000 -0.000000 0.000000 0.000000 12.528835 0.000000 0.000000 0.711642 0.000000 0.000000 -0.000000 0.000000 0.000000 0.000000 -90.000000 0.000000 -2.309062 0.000000 0.000000 2.309062 0.000000 0.000000 -0.000000 0.000000 0.000000 -0.000000 90.000000 0.000000 -2.309062 0.000000 0.000000 2.309062 0.000000 0.000000 8.520406 0.000000 0.000000 1.905762 0.000000 -0.000000 -4.658285 0.000000 0.000000 -0.000000 0.000000 0.000000 8.520406 0.000000 0.000000 1.905762 0.000000 -0.000000 -4.658285 0.000000 0.000000 -0.000000 0.000000
2.277355 152.662247 46.668598 178.053362 -38.380637 -4.438829 4.832934 29.448116 2.747411 0.758468 5.688253 0.371525 1.200786 8.808936 0.596672 3.575750 23.641912 2.173585 0.461747 6.486152 2.020954 0.016489 -18.910732 2.132230 1.328678 -7.586617 -0.680636 13.985345 -20.680358 -7.717436 44.762326 -61.439378 -32.077294 32.231355 22.279670 -13.769151 -12.588216 -10.102339 -0.083544 -5.869809 -24.001086 2.747358 -14.631428 -58.814440 -6.943825 -21.285538 0.625203 27.957148 5.240168 -37.990930 1.753712 -81.745734 83.667110 -85.640110 -0.747784 -26.347306 9.047817 0.032499 -0.334048 0.040198 -0.445856 -32.990399 -5.276921 104.895462 76.671809 115.512925 9.207968 -18.612825 -7.285931 0.114518 0.283038 0.061439
1.754049 145.562750 47.514067 178.164498 -38.376857 -4.571483 4.797279 29.509074 2.843954 0.753849 5.674927 0.368534 1.194293 8.831753 0.600726 3.562829 23.644679 2.174705 0.466782 6.494375 2.008139 0.025243 -18.901527 2.116405 1.315038 -7.566017 -0.701634 14.023573 -20.685348 -7.718429 44.673184 -61.564790 -31.995155 32.160498 22.280711 -13.954433 -12.565900 -10.128869 -0.078349 -5.876168 -23.963562 2.741307 -14.431632 -58.918150 -7.127483 -21.262018 0.562308 28.119849 5.109675 -38.004506 1.850370 -82.033091 83.694263 -85.964326 -0.763856 -26.464162 9.088736 -0.016415 -0.230174 -0.009542 -0.572361 -32.977959 -5.206023 104.880160 76.696418 115.523340 9.248928 -18.423188 -7.288220 0.086814 0.186002 0.050810
1.320372 139.709121 48.216319 178.256630 -38.324041 -4.666722 4.754593 29.519202 2.906144 0.745821 5.631024 0.356496 1.201532 8.951019 0.635047 3.530993 23.581692 2.149312 0.472045 6.499780 1.995726 0.034167 -18.895474 2.101119 1.296462 -7.518438 -0.720589 14.066588 -20.721201 -7.725147 44.578870 -61.683575 -31.905888 32.084395 22.274745 -14.142771 -12.516315 -10.076632 -0.052478 -5.898841 -24.012968 2.715033 -14.221661 -59.013628 -7.319912 -21.243537 0.501078 28.274438 5.011703 -38.063671 1.904340 -82.198292 83.692128 -86.139612 -0.779728 -26.537810 9.104402 -0.025762 -0.161415 -0.015026 -0.666135 -33.023304 -5.172308 104.869084 76.705388 115.530628 9.276812 -18.295989 -7.281928 0.065743 0.116710 0.038466
1.007300 135.477602 48.725733 178.354831 -38.251443 -4.750272 4.688230 29.480622 2.937395 0.744953 5.666063 0.363050 1.198571 8.948342 0.638211 3.516771 23.555330 2.136762 0.476064 6.533974 1.996946 0.043180 -18.892330 2.085524 1.280179 -7.458556 -0.727452 14.098473 -20.742996 -7.725199 44.477777 -61.795449 -31.806943 32.006700 22.260648 -14.335581 -12.468684 -9.988697 -0.024351 -5.917946 -24.071734 2.689194 -14.007923 -59.099484 -7.517595 -21.232673 0.437536 28.422861 4.920113 -38.132767 1.952897 -82.339778 83.686203 -86.308933 -0.813221 -26.615139 9.124337 -0.030554 -0.082658 -0.017849 -0.754074 -33.095078 -5.171308 104.874493 76.700433 115.558361 9.320642 -18.183397 -7.277148 0.033961 0.065445 0.019866
0.814425 132.808249 49.041096 178.432405 -38.215931 -4.824103 4.645953 29.475651 2.977829 0.747311 5.695727 0.373459 1.190276 8.948080 0.637164 3.499884 23.577772 2.144982 0.479872 6.488697 1.968664 0.050430 -18.866232 2.074933 1.271209 -7.444362 -0.758008 14.128082 -20.769969 -7.725974 44.476002 -61.861063 -31.817030 31.872042 22.225138 -14.512304 -12.424199 -9.976588 -0.017075 -5.936235 -24.138768 2.668507 -13.787154 -59.149719 -7.720283 -21.231628 0.371271 28.573959 4.858783 -38.151044 2.038485 -82.414469 83.640309 -86.404726 -0.873389 -26.660711 9.137640 -0.007383 -0.027412 -0.004315 -0.835278 -33.128268 -5.150318 104.902639 76.705808 115.599378 9.346823 -18.088181 -7.272701 0.012291 0.026285 0.007189
0.706535 131.340034 49.211123 178.461187 -38.190509 -4.839664 4.628461 29.501042 2.990083 0.751601 5.743356 0.395616 1.176013 8.879482 0.610868 3.490037 23.624556 2.167623 0.485185 6.481507 1.947854 0.060179 -18.888970 2.051501 1.260631 -7.428649 -0.790525 14.157854 -20.801182 -7.727556 44.317427 -61.983984 -31.648127 31.819669 22.224034 -14.714653 -12.397653 -10.009091 -0.025040 -5.943967 -24.158901 2.659503 -13.573364 -59.195239 -7.914556 -21.237842 0.301849 28.730885 4.851512 -38.165510 2.056835 -82.483260 83.627122 -86.485162 -0.899936 -26.674308 9.154302 -0.006760 -0.019881 -0.003952 -0.860412 -33.152171 -5.157337 104.933791 76.715448 115.637748 9.358124 -18.044410 -7.274504 0.009568 0.008483 0.005595
0.656001 130.640786 49.289202 178.487026 -38.170072 -4.847124 4.616975 29.523833 3.005761 0.741519 5.742117 0.396412 1.172455 8.865607 0.601013 3.478198 23.652735 2.183294 0.490522 6.482805 1.932310 0.070195 -18.913754 2.026289 1.249385 -7.399232 -0.816383 14.185363 -20.834754 -7.728274 44.148705 -62.099759 -31.470042 31.766208 22.216581 -14.915709 -12.341302 -9.962328 -0.015855 -5.968610 -24.224281 2.639409 -13.366632 -59.254130 -8.104962 -21.245734 0.229472 28.892310 4.849311 -38.178110 2.060160 -82.563356 83.621625 -86.576595 -0.894451 -26.666197 9.132760 -0.008182 -0.013630 -0.004783 -0.879783 -33.172657 -5.171492 104.966349 76.722012 115.673294 9.369589 -18.007042 -7.274420 0.007516 -0.002585 0.004394
0.632740 130.351500 49.321936 178.504891 -38.135670 -4.832244 4.594768 29.557760 3.016010 0.734854 5.704611 0.374065 1.164675 8.884651 0.606031 3.466987 23.658519 2.184982 0.492973 6.451680 1.907803 0.079080 -18.914026 2.009156 1.241508 -7.375616 -0.841273 14.210598 -20.870376 -7.727137 44.021003 -62.182046 -31.341995 31.678419 22.192352 -15.111077 -12.280299 -9.921253 -0.009274 -5.998004 -24.285680 2.625255 -13.163160 -59.306748 -8.291950 -21.246787 0.153443 29.057050 4.859146 -38.206926 2.029088 -82.616118 83.622325 -86.635900 -0.892550 -26.662279 9.126390 -0.009282 -0.013049 -0.005427 -0.887974 -33.213209 -5.203322 105.002047 76.720878 115.706169 9.344701 -17.960655 -7.256564 0.001375 -0.000971 0.000804
0.626742 130.252322 49.329240 178.510649 -38.127522 -4.820970 4.585434 29.579512 3.018996 0.732157 5.685061 0.360955 1.165983 8.917947 0.625170 3.451193 23.667652 2.182664 0.493854 6.419914 1.886218 0.088848 -18.925239 1.989534 1.233379 -7.361377 -0.863342 14.243319 -20.904929 -7.727062 43.881769 -62.248965 -31.209131 31.582686 22.165879 -15.311782 -12.231352 -9.906342 -0.002667 -6.019947 -24.322799 2.614342 -12.979793 -59.351023 -8.455134 -21.238055 0.062157 29.224539 4.880765 -38.202657 2.019048 -82.598619 83.611495 -86.617549 -0.903147 -26.663110 9.132722 -0.007569 -0.013762 -0.004425 -0.890433 -33.232406 -5.220908 105.056787 76.719552 115.759656 9.319591 -17.885824 -7.235635 -0.005710 0.005074 -0.003339
0.625895 130.221155 49.332182 178.521219 -38.105902 -4.811628 4.569407 29.585493 3.018521 0.725643 5.694551 0.359783 1.163509 8.925571 0.626285 3.446445 23.675480 2.183245 0.494943 6.401163 1.869425 0.098415 -18.967236 1.966031 1.219893 -7.359342 -0.882283 14.289515 -20.931211 -7.727911 43.732854 -62.302467 -31.077776 31.487045 22.134449 -15.514663 -12.185482 -9.897498 0.010401 -6.036176 -24.359860 2.593266 -12.899195 -59.382958 -8.533141 -21.191560 -0.046031 29.403467 4.898457 -38.215241 2.012967 -82.663615 83.607915 -86.705608 -0.916781 -26.662930 9.152992 -0.015417 -0.012018 -0.009013 -0.895535 -33.262593 -5.240251 105.119049 76.721020 115.822411 9.328654 -17.862781 -7.239521 -0.005899 -0.007188 -0.003449
0.626742 130.213441 49.331558 178.536371 -38.094883 -4.804568 4.550357 29.599955 3.016203 0.728619 5.702291 0.365710 1.159215 8.954099 0.635065 3.428778 23.642414 2.158118 0.498179 6.397764 1.864934 0.107283 -19.026172 1.940764 1.204230 -7.344918 -0.888571 14.340468 -20.949788 -7.725855 43.581747 -62.340625 -30.952092 31.392050 22.095082 -15.720906 -12.141387 -9.870576 0.035218 -5.988618 -24.361583 2.543594 -12.835545 -59.435020 -8.623703 -21.178307 -0.162862 29.573505 4.913868 -38.218283 2.004756 -82.715221 83.597654 -86.763708 -0.927469 -26.658960 9.156183 -0.014360 -0.012068 -0.008395 -0.899489 -33.284562 -5.256513 105.172633 76.721691 115.878939 9.328046 -17.811591 -7.241615 -0.002688 -0.008205 -0.001572
0.628911 130.211021 49.331559 178.536606 -38.083187 -4.791448 4.545762 29.610535 3.015893 0.722665 5.710643 0.365687 1.158780 8.943954 0.627869 3.433304 23.678649 2.172544 0.496518 6.350605 1.844179 0.112761 -19.105728 1.918568 1.191676 -7.376179 -0.907131 14.384960 -20.959971 -7.717140 43.427393 -62.361665 -30.826025 31.298422 22.046790 -15.935863 -12.102043 -9.885268 0.060129 -5.993397 -24.396701 2.498567 -12.791890 -59.434688 -8.650578 -21.145664 -0.283379 29.751247 4.945344 -38.225277 2.008677 -82.798753 83.572526 -86.848692 -0.947128 -26.657094 9.158784 -0.006136 -0.009913 -0.003587 -0.893427 -33.301085 -5.271310 105.198118 76.730611 115.914156 9.336010 -17.761077 -7.252597 -0.000133 -0.006655 -0.000077
0.630585 130.209903 49.331665 178.544522 -38.072641 -4.780030 4.538108 29.620986 3.013973 0.720659 5.717866 0.368645 1.156992 8.951949 0.628812 3.431161 23.696961 2.174028 0.492089 6.287007 1.826173 0.115758 -19.203598 1.894007 1.181974 -7.421024 -0.923914 14.404694 -20.961943 -7.710559 43.261539 -62.380109 -30.671374 31.213218 21.988401 -16.156176 -12.071344 -9.905127 0.087268 -5.990772 -24.424479 2.453265 -12.803953 -59.440440 -8.648246 -21.096669 -0.390400 29.944763 4.959360 -38.233051 2.003706 -82.873383 83.557884 -86.929087 -0.957132 -26.655009 9.155973 -0.001649 -0.010870 -0.000964 -0.896319 -33.319923 -5.282537 105.234420 76.737490 115.951484 9.326799 -17.715388 -7.249775 -0.000948 -0.007140 -0.000554
0.632479 130.210166 49.330679 178.544642 -38.070080 -4.763591 4.541001 29.637925 3.015043 0.727084 5.747824 0.381324 1.153597 8.960507 0.626000 3.409577 23.661636 2.154926 0.496861 6.194711 1.806129 0.107536 -19.281050 1.881702 1.169639 -7.420321 -0.925165 14.432499 -20.978222 -7.709373 43.098636 -62.392412 -30.520521 31.133707 21.926620 -16.373700 -12.044688 -9.900840 0.113568 -5.928588 -24.416349 2.396433 -12.879802 -59.473853 -8.634745 -21.045233 -0.498133 30.137768 4.969213 -38.234963 1.997911 -82.921575 83.546706 -86.984430 -0.960971 -26.647370 9.146939 0.002029 -0.010667 0.001186 -0.894494 -33.332368 -5.293059 105.276442 76.742240 115.990694 9.315784 -17.648002 -7.242895 -0.003156 0.001449 -0.001846
